#!OML:ASF H:\ManfredETheater\Project 1\Capture day 1\Session 1\subject.ASF
:FULLY-SPECIFIED
:DEGREES
222
root 1.41053 15.9753 -3.61232 -5.98179 3.96852 0.0695258
lowerback 4.34574 -0.626042 -3.31763
upperback 0.130714 -0.96241 1.59497
thorax -2.22082 -0.438278 3.56751
lowerneck -19.0823 -1.83612 -2.39165
upperneck 23.4572 -1.88804 0.174756
head 10.7392 -1.05756 0.185128
rclavicle 2.23633e-016 5.96354e-015
rhumerus 25.7379 3.95148 -43.5428
rradius 69.2903
rwrist 9.64376
rhand 6.41925 -21.5278
rfingers 7.12502
rthumb 31.7227 -48.789
lclavicle 2.23633e-016 5.96354e-015
lhumerus 25.0598 -2.24847 59.8832
lradius 74.6629
lwrist -23.4204
lhand 13.9716 16.2663
lfingers 7.12502
lthumb 38.8828 41.8198
rfemur -15.5072 -15.9358 7.71527
rtibia 64.6894
rfoot -34.1501 0.922698
rtoes -13.2279
lfemur -17.5762 5.25727 -10.5016
ltibia 64.7138
lfoot -35.509 -3.25383
ltoes -13.2317
223
root 1.41096 15.9751 -3.61056 -5.98255 3.96234 0.0755754
lowerback 4.32877 -0.622388 -3.31864
upperback 0.131017 -0.95717 1.59139
thorax -2.21148 -0.43587 3.56375
lowerneck -19.0698 -1.83755 -2.40168
upperneck 23.4413 -1.8898 0.184268
head 10.7313 -1.05804 0.19013
rclavicle -1.11816e-015 1.51076e-014
rhumerus 25.7323 3.95601 -43.5397
rradius 69.2941
rwrist 9.6257
rhand 6.42457 -21.5476
rfingers 7.12502
rthumb 31.7278 -48.8078
lclavicle -1.11816e-015 1.51076e-014
lhumerus 25.0574 -2.24721 59.8886
lradius 74.656
lwrist -23.4302
lhand 13.9529 16.2444
lfingers 7.12502
lthumb 38.8651 41.803
rfemur -15.5051 -15.9305 7.70474
rtibia 64.6964
rfoot -34.1477 0.927172
rtoes -13.2389
lfemur -17.5747 5.26329 -10.5085
ltibia 64.7212
lfoot -35.5096 -3.2622
ltoes -13.2166
224
root 1.41045 15.9741 -3.60932 -5.99578 3.95441 0.0371342
lowerback 4.3157 -0.619315 -3.28444
upperback 0.134856 -0.950783 1.59946
thorax -2.20114 -0.433275 3.55214
lowerneck -19.0743 -1.83853 -2.41973
upperneck 23.458 -1.89229 0.209655
head 10.7388 -1.05767 0.20181
rclavicle -1.46604e-015 -1.35174e-014
rhumerus 25.724 3.94503 -43.5506
rradius 69.3047
rwrist 9.60091
rhand 6.46229 -21.5431
rfingers 7.12502
rthumb 31.7637 -48.7961
lclavicle -1.46604e-015 -1.35174e-014
lhumerus 25.0559 -2.25802 59.8939
lradius 74.6322
lwrist -23.4342
lhand 13.9609 16.2198
lfingers 7.12502
lthumb 38.8726 41.7762
rfemur -15.4926 -15.9157 7.75222
rtibia 64.6983
rfoot -34.1491 0.898615
rtoes -13.3165
lfemur -17.5623 5.27148 -10.4557
ltibia 64.7326
lfoot -35.5137 -3.26361
ltoes -13.2675
225
root 1.41155 15.9744 -3.60746 -5.9981 3.9664 0.0660656
lowerback 4.31286 -0.625677 -3.30568
upperback 0.127167 -0.960524 1.58908
thorax -2.20648 -0.437735 3.55398
lowerneck -19.0539 -1.83186 -2.38951
upperneck 23.4473 -1.88481 0.179533
head 10.7301 -1.05532 0.187247
rclavicle 9.41742e-015 -9.14409e-015
rhumerus 25.7263 3.96306 -43.5576
rradius 69.3008
rwrist 9.60518
rhand 6.48441 -21.5128
rfingers 7.12502
rthumb 31.7848 -48.7617
lclavicle 9.41742e-015 -9.14409e-015
lhumerus 25.0312 -2.25271 59.8885
lradius 74.6335
lwrist -23.4229
lhand 13.9639 16.2433
lfingers 7.12502
lthumb 38.8755 41.7989
rfemur -15.4751 -15.94 7.70228
rtibia 64.6952
rfoot -34.1483 0.900405
rtoes -13.3464
lfemur -17.5505 5.25516 -10.4984
ltibia 64.7305
lfoot -35.5183 -3.26321
ltoes -13.1858
226
root 1.41107 15.9737 -3.60591 -5.99836 3.96772 0.0351987
lowerback 4.30156 -0.62898 -3.28213
upperback 0.111154 -0.963312 1.59839
thorax -2.21663 -0.438861 3.55049
lowerneck -19.0219 -1.82648 -2.40209
upperneck 23.4474 -1.87793 0.193252
head 10.7242 -1.05167 0.195567
rclavicle 2.3059e-014 -1.66979e-014
rhumerus 25.7132 3.99052 -43.5609
rradius 69.3003
rwrist 9.59873
rhand 6.48685 -21.5436
rfingers 7.12502
rthumb 31.7871 -48.792
lclavicle 2.3059e-014 -1.66979e-014
lhumerus 24.9846 -2.26805 59.8759
lradius 74.6455
lwrist -23.3949
lhand 13.9833 16.2746
lfingers 7.12502
lthumb 38.8938 41.8249
rfemur -15.4676 -15.9386 7.73866
rtibia 64.6926
rfoot -34.1469 0.908764
rtoes -13.3099
lfemur -17.5473 5.26055 -10.4566
ltibia 64.738
lfoot -35.5314 -3.24866
ltoes -13.2519
227
root 1.41078 15.9737 -3.6036 -6.02049 3.95187 0.00603391
lowerback 4.29383 -0.623162 -3.25201
upperback 0.122372 -0.953616 1.60539
thorax -2.20191 -0.434785 3.53989
lowerneck -19.0569 -1.82996 -2.41535
upperneck 23.4707 -1.88079 0.204642
head 10.7399 -1.05275 0.201076
rclavicle 1.99779e-014 -2.82274e-014
rhumerus 25.7126 3.99148 -43.5524
rradius 69.2981
rwrist 9.59691
rhand 6.46549 -21.5316
rfingers 7.12502
rthumb 31.7668 -48.7841
lclavicle 1.99779e-014 -2.82274e-014
lhumerus 24.9924 -2.27274 59.8788
lradius 74.6304
lwrist -23.3797
lhand 13.9816 16.276
lfingers 7.12502
lthumb 38.8922 41.8268
rfemur -15.4387 -15.9212 7.77153
rtibia 64.6877
rfoot -34.1584 0.88872
rtoes -13.4115
lfemur -17.5138 5.27358 -10.4138
ltibia 64.7388
lfoot -35.5434 -3.25741
ltoes -13.3101
